<svg version="1.1" id="Layer_1" xmlns="http://www.w3.org/2000/svg" xmlns:xlink="http://www.w3.org/1999/xlink" x="0px" y="0px"
	 width="100%" viewBox="0 0 1600 358" enable-background="new 0 0 1600 358" xml:space="preserve">
<path fill="#FFFFFF" opacity="1.000000" stroke="none" 
	d="
M1050.000000,359.000000 
	C700.044556,359.000000 350.589172,359.000000 1.066870,359.000000 
	C1.066870,239.726501 1.066870,120.452950 1.066870,1.089702 
	C534.333313,1.089702 1067.666626,1.089702 1600.964600,1.089702 
	C1600.964600,120.410965 1600.964600,239.705490 1600.964600,359.000000 
	C1417.452759,359.000000 1233.976440,359.000000 1050.000000,359.000000 
M164.500000,47.108040 
	C131.083496,47.108040 97.667000,47.108040 64.171165,47.108040 
	C64.171165,133.958481 64.171165,220.029129 64.171165,306.434540 
	C65.885742,306.550476 67.340271,306.731506 68.795128,306.734222 
	C80.957649,306.756775 93.125099,306.549042 105.280266,306.848602 
	C109.804108,306.960114 110.858261,305.434052 110.836449,301.132629 
	C110.672508,268.811035 110.741325,236.488251 110.761681,204.165848 
	C110.762878,202.257767 110.974495,200.349823 111.121933,197.875671 
	C151.573441,197.875671 191.447021,197.875671 231.747910,197.875671 
	C231.747910,185.301834 231.539505,173.328232 231.851288,161.368179 
	C231.974594,156.637878 230.714722,155.115417 225.781616,155.143127 
	C189.295090,155.348099 152.806595,155.186768 116.319595,155.345917 
	C112.057587,155.364502 110.568756,154.433868 110.636475,149.867798 
	C110.905769,131.711258 110.739845,113.548363 110.756477,95.387840 
	C110.757950,93.772591 110.913704,92.157494 111.004272,90.418091 
	C155.557465,90.418091 199.746124,90.418091 244.492828,90.418091 
	C244.492828,95.707802 244.492828,100.586105 244.492828,106.677376 
	C257.578308,93.144211 269.772980,80.532341 282.200287,67.679863 
	C269.762146,54.852497 257.639648,42.350658 245.517151,29.848822 
	C245.091904,29.972027 244.666672,30.095232 244.241425,30.218437 
	C244.241425,35.716240 244.241425,41.214043 244.241425,47.108459 
	C217.432129,47.108459 191.466064,47.108459 164.500000,47.108040 
M1326.828247,235.625916 
	C1317.550415,221.922455 1308.272705,208.219009 1298.827148,194.267776 
	C1321.607788,170.660934 1344.157471,147.293488 1367.495605,123.108887 
	C1348.056641,123.108887 1330.073730,123.041779 1312.093140,123.218163 
	C1310.394531,123.234825 1308.277222,124.382591 1307.085815,125.678001 
	C1291.429932,142.701263 1275.917480,159.856308 1260.342773,176.954422 
	C1253.810425,184.125656 1247.216431,191.240601 1239.763428,199.345673 
	C1239.763428,147.814560 1239.763428,97.719963 1239.763428,47.425896 
	C1224.809692,47.425896 1210.246948,47.425896 1195.108398,47.425896 
	C1195.108398,49.690418 1195.108398,51.642494 1195.108398,53.594570 
	C1195.108276,134.921692 1195.092896,216.248825 1195.127441,297.575958 
	C1195.131836,307.906921 1193.615234,306.686768 1204.530640,306.735474 
	C1216.154053,306.787354 1227.777710,306.747162 1240.002197,306.747162 
	C1240.002197,304.416840 1240.002075,302.640198 1240.002075,300.863556 
	C1240.002075,286.197998 1239.883545,271.530548 1240.122192,256.868866 
	C1240.160889,254.491791 1241.226196,251.660263 1242.772827,249.859955 
	C1249.710693,241.784256 1256.979004,233.991745 1264.166992,226.132584 
	C1265.344482,224.845062 1266.717163,223.735977 1268.301758,222.263718 
	C1269.858398,224.595032 1271.077759,226.342148 1272.217407,228.139771 
	C1288.025879,253.073486 1303.765625,278.051392 1319.741333,302.877472 
	C1320.926270,304.718689 1323.764038,306.532227 1325.871704,306.577454 
	C1340.697021,306.895508 1355.532471,306.758789 1370.364624,306.722229 
	C1371.538574,306.719330 1372.711914,306.375671 1374.537598,306.087463 
	C1358.480225,282.320526 1342.891235,259.246735 1326.828247,235.625916 
M400.480042,132.999954 
	C385.627380,122.880692 368.841980,119.233093 351.281708,119.363937 
	C328.864594,119.530975 308.258057,125.698174 291.270844,141.020981 
	C285.183594,146.511765 279.874115,152.864807 273.769501,159.287354 
	C285.957458,168.068787 297.083374,176.085007 308.427887,184.258743 
	C309.513977,182.792358 310.403931,181.616058 311.267639,180.420792 
	C322.339478,165.098969 336.994415,157.503845 356.191071,158.909821 
	C375.468323,160.321701 389.511627,177.029221 387.292725,197.108032 
	C385.581696,197.108032 383.798126,197.108032 382.014526,197.108032 
	C367.521057,197.108124 353.004700,196.609238 338.541687,197.273071 
	C327.812042,197.765533 316.910065,198.774673 306.510956,201.304993 
	C285.016510,206.535065 270.040436,219.204453 267.630249,242.447342 
	C265.216339,265.726715 272.060638,285.526733 292.463135,299.053925 
	C306.359833,308.267670 321.897034,310.693146 338.200745,310.028412 
	C358.311249,309.208435 374.767303,301.303772 387.112762,285.219147 
	C388.125854,283.899200 389.276978,282.685242 390.888947,280.811951 
	C391.706268,288.648651 392.506897,295.414948 393.077942,302.200623 
	C393.346771,305.394989 394.419556,306.904938 397.976837,306.820831 
	C407.300751,306.600494 416.638550,306.564087 425.960052,306.830750 
	C430.062500,306.948120 430.994324,305.401794 430.966248,301.586487 
	C430.811798,280.597076 430.992950,259.605316 430.861328,238.615616 
	C430.751770,221.143066 431.024292,203.631592 429.942810,186.210907 
	C428.587036,164.371231 419.235474,146.340485 400.480042,132.999954 
M1129.925049,144.608978 
	C1121.110962,134.698196 1110.433350,127.753769 1097.721558,123.787285 
	C1081.821899,118.826111 1065.735718,118.384789 1049.444580,121.095436 
	C1024.361328,125.268951 1005.813232,139.355484 990.750183,159.656540 
	C1002.223083,167.954269 1013.442322,176.068497 1024.803955,184.285797 
	C1025.753662,183.155060 1026.447754,182.462387 1026.988159,181.665619 
	C1038.215942,165.113358 1053.578003,157.131958 1073.744019,158.977646 
	C1094.000610,160.831589 1105.595581,178.758713 1103.395874,197.107971 
	C1088.176147,197.107971 1072.876953,196.757019 1057.603394,197.232056 
	C1047.514038,197.545837 1037.324341,198.317902 1027.424194,200.183472 
	C1011.965027,203.096603 998.301636,209.627792 989.886536,223.979080 
	C984.005493,234.008575 983.018494,245.025772 984.005981,256.270142 
	C985.940613,278.299500 996.845459,294.277222 1016.989197,303.639771 
	C1030.506104,309.922272 1044.929688,311.125397 1059.495361,309.770386 
	C1071.056885,308.694824 1082.030640,305.151459 1091.077759,297.479095 
	C1096.597290,292.798248 1101.594360,287.501587 1107.311646,282.015594 
	C1108.322266,290.282410 1109.309937,298.360870 1110.293335,306.404785 
	C1122.723633,306.404785 1134.637817,306.404785 1146.686035,306.404785 
	C1146.814453,305.276184 1146.986328,304.470642 1146.986328,303.665070 
	C1146.986206,265.840454 1147.247925,228.012756 1146.830811,190.192581 
	C1146.646606,173.483978 1141.044189,158.277466 1129.925049,144.608978 
M1478.470215,310.092712 
	C1507.317505,309.754669 1531.505981,299.172333 1551.049194,277.186188 
	C1541.713745,268.802612 1532.650391,260.529724 1523.359985,252.520248 
	C1522.396362,251.689529 1519.331543,251.693848 1518.507935,252.541382 
	C1504.100586,267.365723 1486.463623,271.234558 1466.566284,269.072968 
	C1445.647705,266.800476 1433.083374,249.210434 1431.483521,229.465454 
	C1473.196899,229.465454 1514.849609,229.465454 1556.586426,229.465454 
	C1558.981445,215.968216 1558.494141,203.274460 1556.332275,190.647491 
	C1553.573853,174.535645 1547.680908,159.840469 1537.066650,147.049149 
	C1527.789429,135.869019 1516.209473,128.555862 1502.650146,123.980621 
	C1491.008423,120.052399 1478.984253,119.805206 1466.857544,119.945541 
	C1451.106934,120.127815 1436.606201,124.612350 1423.640625,133.163940 
	C1395.880737,151.473450 1385.388672,179.320312 1383.257812,210.885620 
	C1382.610962,220.468246 1384.188843,230.438675 1386.212280,239.918884 
	C1392.007812,267.072784 1406.234863,288.283600 1431.742676,300.944855 
	C1446.187622,308.114838 1461.590088,310.273224 1478.470215,310.092712 
M888.640076,304.876678 
	C888.675598,302.878265 888.742004,300.879852 888.742126,298.881439 
	C888.747070,231.217438 888.745667,163.553436 888.745178,95.889427 
	C888.745178,93.778656 888.745178,91.667877 888.745178,89.438354 
	C911.562683,89.438354 933.755493,89.438354 956.530762,89.438354 
	C956.530762,95.067528 956.530762,100.264221 956.530762,106.363876 
	C968.707764,93.754639 980.085388,81.870453 991.604187,70.124725 
	C994.169067,67.509232 992.379822,66.083015 990.735901,64.383560 
	C980.778931,54.089767 970.828796,43.789299 960.851257,33.515491 
	C959.682434,32.312061 958.359802,31.258121 956.149353,29.273939 
	C956.149353,35.975544 956.149353,41.228638 956.149353,47.082485 
	C890.926697,47.082485 826.198120,47.082485 761.337769,47.082485 
	C761.337769,61.388222 761.337769,75.067146 761.337769,89.198486 
	C788.379700,89.198486 814.971802,89.198486 842.152832,89.198486 
	C842.152832,161.870071 842.152832,234.084930 842.152832,306.661682 
	C857.379883,306.661682 872.014038,306.672333 886.647949,306.621307 
	C887.210571,306.619354 887.771057,306.023560 888.640076,304.876678 
M566.165833,124.313347 
	C550.905029,118.985329 535.306702,117.957207 519.489136,121.025635 
	C487.679504,127.196365 467.371704,147.820175 469.164490,180.070602 
	C469.884003,193.013290 474.497681,204.252930 485.108856,212.538177 
	C496.142761,221.153458 509.168854,224.983322 522.291931,228.784790 
	C532.006653,231.598923 541.873474,234.200378 551.151917,238.126907 
	C562.164001,242.787094 564.288757,254.047653 556.547424,263.089905 
	C554.537781,265.437225 551.935303,267.520966 549.203308,268.965820 
	C533.121155,277.471069 512.203003,273.134033 501.103882,258.787659 
	C497.493561,254.121094 494.893585,248.672882 491.691559,243.349533 
	C480.323120,248.402740 468.701691,253.568420 455.686432,259.353638 
	C460.240112,266.903076 463.594482,274.688385 468.868378,280.823639 
	C492.020233,307.756653 521.821350,314.701874 555.561768,307.564575 
	C569.847656,304.542633 582.427002,297.910858 592.144958,286.632324 
	C603.299927,273.685944 606.318787,258.287079 604.791504,241.862061 
	C603.497437,227.946396 597.035767,216.659592 585.694763,208.216278 
	C573.689209,199.278229 559.656982,195.262741 545.659302,190.930283 
	C536.507935,188.097794 527.157471,185.243073 518.780762,180.749390 
	C509.334106,175.681732 509.560791,165.243744 518.801758,159.614777 
	C522.883972,157.128220 528.012756,155.564896 532.797058,155.171692 
	C548.676758,153.866562 560.873840,160.716003 569.319519,173.995651 
	C571.507690,177.436234 573.394470,177.604019 576.526306,175.790390 
	C581.851501,172.706543 587.296997,169.830826 592.681091,166.848114 
	C597.253174,164.315247 601.809998,161.754807 606.513855,159.128265 
	C596.778381,142.774185 584.253906,130.906738 566.165833,124.313347 
M722.632812,270.216370 
	C708.840515,272.251831 700.095459,267.112488 698.032104,255.573578 
	C697.450195,252.319717 697.162170,248.970383 697.153381,245.663742 
	C697.084045,219.346954 697.114441,193.029892 697.114258,166.712921 
	C697.114258,164.938248 697.114197,163.163574 697.114197,160.892349 
	C699.567993,160.892349 701.361389,160.892395 703.154724,160.892349 
	C715.147278,160.892029 727.139771,160.892090 739.132324,160.890976 
	C741.303894,160.890778 743.721863,161.240387 743.724121,157.916946 
	C743.731995,146.477005 743.727173,135.037048 743.727173,122.960907 
	C727.926392,122.960907 712.720825,122.960907 696.944702,122.960907 
	C696.944702,97.293884 696.944702,72.268280 696.944702,46.663731 
	C695.520386,47.236214 694.701782,47.390839 694.095337,47.835098 
	C684.865479,54.596920 676.167725,62.270702 666.319946,67.954033 
	C655.367615,74.274834 651.003418,82.540382 653.194458,94.751724 
	C653.599792,97.010895 653.252625,99.405106 653.252625,101.736992 
	C653.252686,108.674164 653.252625,115.611328 653.252625,123.233658 
	C642.893494,123.233658 633.182800,123.233658 623.550354,123.233658 
	C623.550354,136.148163 623.550354,148.358139 623.550354,161.010712 
	C633.420898,161.010712 642.856323,161.010712 652.885986,161.010712 
	C652.885986,163.402283 652.883728,165.350616 652.886230,167.298950 
	C652.927246,198.944977 652.291870,230.611618 653.254456,262.229584 
	C653.869568,282.437256 664.107300,297.502838 683.468689,305.243286 
	C702.080994,312.684326 720.885132,311.005829 739.738647,306.070099 
	C742.994934,305.217651 743.895081,303.397217 743.792053,300.298828 
	C743.626160,295.307434 743.747131,290.306488 743.747070,285.309601 
	C743.746948,278.414703 743.747070,271.519806 743.747070,264.857880 
	C736.585144,266.721985 730.038818,268.425842 722.632812,270.216370 
z"/>
<path fill="#7F96E9" opacity="1.000000" stroke="none" 
	d="
M165.000000,47.108250 
	C191.466064,47.108459 217.432129,47.108459 244.241425,47.108459 
	C244.241425,41.214043 244.241425,35.716240 244.241425,30.218437 
	C244.666672,30.095232 245.091904,29.972027 245.517151,29.848822 
	C257.639648,42.350658 269.762146,54.852497 282.200287,67.679863 
	C269.772980,80.532341 257.578308,93.144211 244.492828,106.677376 
	C244.492828,100.586105 244.492828,95.707802 244.492828,90.418091 
	C199.746124,90.418091 155.557465,90.418091 111.004272,90.418091 
	C110.913704,92.157494 110.757950,93.772591 110.756477,95.387840 
	C110.739845,113.548363 110.905769,131.711258 110.636475,149.867798 
	C110.568756,154.433868 112.057587,155.364502 116.319595,155.345917 
	C152.806595,155.186768 189.295090,155.348099 225.781616,155.143127 
	C230.714722,155.115417 231.974594,156.637878 231.851288,161.368179 
	C231.539505,173.328232 231.747910,185.301834 231.747910,197.875671 
	C191.447021,197.875671 151.573441,197.875671 111.121933,197.875671 
	C110.974495,200.349823 110.762878,202.257767 110.761681,204.165848 
	C110.741325,236.488251 110.672508,268.811035 110.836449,301.132629 
	C110.858261,305.434052 109.804108,306.960114 105.280266,306.848602 
	C93.125099,306.549042 80.957649,306.756775 68.795128,306.734222 
	C67.340271,306.731506 65.885742,306.550476 64.171165,306.434540 
	C64.171165,220.029129 64.171165,133.958481 64.171165,47.108040 
	C97.667000,47.108040 131.083496,47.108040 165.000000,47.108250 
z"/>
<path fill="#7F96E9" opacity="1.000000" stroke="none" 
	d="
M1327.065186,235.899414 
	C1342.891235,259.246735 1358.480225,282.320526 1374.537598,306.087463 
	C1372.711914,306.375671 1371.538574,306.719330 1370.364624,306.722229 
	C1355.532471,306.758789 1340.697021,306.895508 1325.871704,306.577454 
	C1323.764038,306.532227 1320.926270,304.718689 1319.741333,302.877472 
	C1303.765625,278.051392 1288.025879,253.073486 1272.217407,228.139771 
	C1271.077759,226.342148 1269.858398,224.595032 1268.301758,222.263718 
	C1266.717163,223.735977 1265.344482,224.845062 1264.166992,226.132584 
	C1256.979004,233.991745 1249.710693,241.784256 1242.772827,249.859955 
	C1241.226196,251.660263 1240.160889,254.491791 1240.122192,256.868866 
	C1239.883545,271.530548 1240.002075,286.197998 1240.002075,300.863556 
	C1240.002075,302.640198 1240.002197,304.416840 1240.002197,306.747162 
	C1227.777710,306.747162 1216.154053,306.787354 1204.530640,306.735474 
	C1193.615234,306.686768 1195.131836,307.906921 1195.127441,297.575958 
	C1195.092896,216.248825 1195.108276,134.921692 1195.108398,53.594570 
	C1195.108398,51.642494 1195.108398,49.690418 1195.108398,47.425896 
	C1210.246948,47.425896 1224.809692,47.425896 1239.763428,47.425896 
	C1239.763428,97.719963 1239.763428,147.814560 1239.763428,199.345673 
	C1247.216431,191.240601 1253.810425,184.125656 1260.342773,176.954422 
	C1275.917480,159.856308 1291.429932,142.701263 1307.085815,125.678001 
	C1308.277222,124.382591 1310.394531,123.234825 1312.093140,123.218163 
	C1330.073730,123.041779 1348.056641,123.108887 1367.495605,123.108887 
	C1344.157471,147.293488 1321.607788,170.660934 1298.827148,194.267776 
	C1308.272705,208.219009 1317.550415,221.922455 1327.065186,235.899414 
z"/>
<path fill="#7F96E9" opacity="1.000000" stroke="none" 
	d="
M400.772583,133.208466 
	C419.235474,146.340485 428.587036,164.371231 429.942810,186.210907 
	C431.024292,203.631592 430.751770,221.143066 430.861328,238.615616 
	C430.992950,259.605316 430.811798,280.597076 430.966248,301.586487 
	C430.994324,305.401794 430.062500,306.948120 425.960052,306.830750 
	C416.638550,306.564087 407.300751,306.600494 397.976837,306.820831 
	C394.419556,306.904938 393.346771,305.394989 393.077942,302.200623 
	C392.506897,295.414948 391.706268,288.648651 390.888947,280.811951 
	C389.276978,282.685242 388.125854,283.899200 387.112762,285.219147 
	C374.767303,301.303772 358.311249,309.208435 338.200745,310.028412 
	C321.897034,310.693146 306.359833,308.267670 292.463135,299.053925 
	C272.060638,285.526733 265.216339,265.726715 267.630249,242.447342 
	C270.040436,219.204453 285.016510,206.535065 306.510956,201.304993 
	C316.910065,198.774673 327.812042,197.765533 338.541687,197.273071 
	C353.004700,196.609238 367.521057,197.108124 382.014526,197.108032 
	C383.798126,197.108032 385.581696,197.108032 387.292725,197.108032 
	C389.511627,177.029221 375.468323,160.321701 356.191071,158.909821 
	C336.994415,157.503845 322.339478,165.098969 311.267639,180.420792 
	C310.403931,181.616058 309.513977,182.792358 308.427887,184.258743 
	C297.083374,176.085007 285.957458,168.068787 273.769501,159.287354 
	C279.874115,152.864807 285.183594,146.511765 291.270844,141.020981 
	C308.258057,125.698174 328.864594,119.530975 351.281708,119.363937 
	C368.841980,119.233093 385.627380,122.880692 400.772583,133.208466 
M378.888519,253.298264 
	C383.593811,246.301025 387.944763,239.188568 386.907410,229.751282 
	C371.776062,229.751282 357.136292,229.665085 342.498810,229.810211 
	C338.706940,229.847794 334.871918,230.354111 331.143921,231.088058 
	C320.931488,233.098648 313.308044,241.852722 313.046692,251.538254 
	C312.789734,261.060638 319.293274,268.948029 330.300873,271.106934 
	C349.627106,274.897369 365.669678,268.740814 378.888519,253.298264 
z"/>
<path fill="#7F96E9" opacity="1.000000" stroke="none" 
	d="
M1130.151123,144.884216 
	C1141.044189,158.277466 1146.646606,173.483978 1146.830811,190.192581 
	C1147.247925,228.012756 1146.986206,265.840454 1146.986328,303.665070 
	C1146.986328,304.470642 1146.814453,305.276184 1146.686035,306.404785 
	C1134.637817,306.404785 1122.723633,306.404785 1110.293335,306.404785 
	C1109.309937,298.360870 1108.322266,290.282410 1107.311646,282.015594 
	C1101.594360,287.501587 1096.597290,292.798248 1091.077759,297.479095 
	C1082.030640,305.151459 1071.056885,308.694824 1059.495361,309.770386 
	C1044.929688,311.125397 1030.506104,309.922272 1016.989197,303.639771 
	C996.845459,294.277222 985.940613,278.299500 984.005981,256.270142 
	C983.018494,245.025772 984.005493,234.008575 989.886536,223.979080 
	C998.301636,209.627792 1011.965027,203.096603 1027.424194,200.183472 
	C1037.324341,198.317902 1047.514038,197.545837 1057.603394,197.232056 
	C1072.876953,196.757019 1088.176147,197.107971 1103.395874,197.107971 
	C1105.595581,178.758713 1094.000610,160.831589 1073.744019,158.977646 
	C1053.578003,157.131958 1038.215942,165.113358 1026.988159,181.665619 
	C1026.447754,182.462387 1025.753662,183.155060 1024.803955,184.285797 
	C1013.442322,176.068497 1002.223083,167.954269 990.750183,159.656540 
	C1005.813232,139.355484 1024.361328,125.268951 1049.444580,121.095436 
	C1065.735718,118.384789 1081.821899,118.826111 1097.721558,123.787285 
	C1110.433350,127.753769 1121.110962,134.698196 1130.151123,144.884216 
M1064.506348,229.744690 
	C1057.953125,230.469208 1051.195557,230.422989 1044.893799,232.095200 
	C1034.931519,234.738693 1029.478149,243.015488 1029.812988,252.894424 
	C1030.114380,261.793640 1036.116333,268.457550 1046.139038,271.021515 
	C1063.819092,275.544312 1085.525146,267.551788 1095.861328,252.524002 
	C1100.460449,245.837112 1104.020630,238.690964 1103.755005,229.744659 
	C1090.715332,229.744659 1078.109741,229.744659 1064.506348,229.744690 
z"/>
<path fill="#7F96E9" opacity="1.000000" stroke="none" 
	d="
M1477.975464,310.101227 
	C1461.590088,310.273224 1446.187622,308.114838 1431.742676,300.944855 
	C1406.234863,288.283600 1392.007812,267.072784 1386.212280,239.918884 
	C1384.188843,230.438675 1382.610962,220.468246 1383.257812,210.885620 
	C1385.388672,179.320312 1395.880737,151.473450 1423.640625,133.163940 
	C1436.606201,124.612350 1451.106934,120.127815 1466.857544,119.945541 
	C1478.984253,119.805206 1491.008423,120.052399 1502.650146,123.980621 
	C1516.209473,128.555862 1527.789429,135.869019 1537.066650,147.049149 
	C1547.680908,159.840469 1553.573853,174.535645 1556.332275,190.647491 
	C1558.494141,203.274460 1558.981445,215.968216 1556.586426,229.465454 
	C1514.849609,229.465454 1473.196899,229.465454 1431.483521,229.465454 
	C1433.083374,249.210434 1445.647705,266.800476 1466.566284,269.072968 
	C1486.463623,271.234558 1504.100586,267.365723 1518.507935,252.541382 
	C1519.331543,251.693848 1522.396362,251.689529 1523.359985,252.520248 
	C1532.650391,260.529724 1541.713745,268.802612 1551.049194,277.186188 
	C1531.505981,299.172333 1507.317505,309.754669 1477.975464,310.101227 
M1443.504150,168.039719 
	C1437.469727,176.730011 1432.346558,185.795120 1431.047607,196.661392 
	C1459.070068,196.661392 1486.424072,196.661392 1514.090942,196.661392 
	C1512.623291,186.345566 1509.973755,177.057404 1503.098633,169.504242 
	C1493.426514,158.878326 1480.611084,156.603973 1467.286987,157.324066 
	C1458.592041,157.793991 1450.636230,161.531998 1443.504150,168.039719 
z"/>
<path fill="#7F96E9" opacity="1.000000" stroke="none" 
	d="
M888.486328,305.290588 
	C887.771057,306.023560 887.210571,306.619354 886.647949,306.621307 
	C872.014038,306.672333 857.379883,306.661682 842.152832,306.661682 
	C842.152832,234.084930 842.152832,161.870071 842.152832,89.198486 
	C814.971802,89.198486 788.379700,89.198486 761.337769,89.198486 
	C761.337769,75.067146 761.337769,61.388222 761.337769,47.082485 
	C826.198120,47.082485 890.926697,47.082485 956.149353,47.082485 
	C956.149353,41.228638 956.149353,35.975544 956.149353,29.273939 
	C958.359802,31.258121 959.682434,32.312061 960.851257,33.515491 
	C970.828796,43.789299 980.778931,54.089767 990.735901,64.383560 
	C992.379822,66.083015 994.169067,67.509232 991.604187,70.124725 
	C980.085388,81.870453 968.707764,93.754639 956.530762,106.363876 
	C956.530762,100.264221 956.530762,95.067528 956.530762,89.438354 
	C933.755493,89.438354 911.562683,89.438354 888.745178,89.438354 
	C888.745178,91.667877 888.745178,93.778656 888.745178,95.889427 
	C888.745667,163.553436 888.747070,231.217438 888.742126,298.881439 
	C888.742004,300.879852 888.675598,302.878265 888.486328,305.290588 
z"/>
<path fill="#7F96E9" opacity="1.000000" stroke="none" 
	d="
M566.521545,124.476700 
	C584.253906,130.906738 596.778381,142.774185 606.513855,159.128265 
	C601.809998,161.754807 597.253174,164.315247 592.681091,166.848114 
	C587.296997,169.830826 581.851501,172.706543 576.526306,175.790390 
	C573.394470,177.604019 571.507690,177.436234 569.319519,173.995651 
	C560.873840,160.716003 548.676758,153.866562 532.797058,155.171692 
	C528.012756,155.564896 522.883972,157.128220 518.801758,159.614777 
	C509.560791,165.243744 509.334106,175.681732 518.780762,180.749390 
	C527.157471,185.243073 536.507935,188.097794 545.659302,190.930283 
	C559.656982,195.262741 573.689209,199.278229 585.694763,208.216278 
	C597.035767,216.659592 603.497437,227.946396 604.791504,241.862061 
	C606.318787,258.287079 603.299927,273.685944 592.144958,286.632324 
	C582.427002,297.910858 569.847656,304.542633 555.561768,307.564575 
	C521.821350,314.701874 492.020233,307.756653 468.868378,280.823639 
	C463.594482,274.688385 460.240112,266.903076 455.686432,259.353638 
	C468.701691,253.568420 480.323120,248.402740 491.691559,243.349533 
	C494.893585,248.672882 497.493561,254.121094 501.103882,258.787659 
	C512.203003,273.134033 533.121155,277.471069 549.203308,268.965820 
	C551.935303,267.520966 554.537781,265.437225 556.547424,263.089905 
	C564.288757,254.047653 562.164001,242.787094 551.151917,238.126907 
	C541.873474,234.200378 532.006653,231.598923 522.291931,228.784790 
	C509.168854,224.983322 496.142761,221.153458 485.108856,212.538177 
	C474.497681,204.252930 469.884003,193.013290 469.164490,180.070602 
	C467.371704,147.820175 487.679504,127.196365 519.489136,121.025635 
	C535.306702,117.957207 550.905029,118.985329 566.521545,124.476700 
z"/>
<path fill="#7F96E9" opacity="1.000000" stroke="none" 
	d="
M723.062622,270.173035 
	C730.038818,268.425842 736.585144,266.721985 743.747070,264.857880 
	C743.747070,271.519806 743.746948,278.414703 743.747070,285.309601 
	C743.747131,290.306488 743.626160,295.307434 743.792053,300.298828 
	C743.895081,303.397217 742.994934,305.217651 739.738647,306.070099 
	C720.885132,311.005829 702.080994,312.684326 683.468689,305.243286 
	C664.107300,297.502838 653.869568,282.437256 653.254456,262.229584 
	C652.291870,230.611618 652.927246,198.944977 652.886230,167.298950 
	C652.883728,165.350616 652.885986,163.402283 652.885986,161.010712 
	C642.856323,161.010712 633.420898,161.010712 623.550354,161.010712 
	C623.550354,148.358139 623.550354,136.148163 623.550354,123.233658 
	C633.182800,123.233658 642.893494,123.233658 653.252625,123.233658 
	C653.252625,115.611328 653.252686,108.674164 653.252625,101.736992 
	C653.252625,99.405106 653.599792,97.010895 653.194458,94.751724 
	C651.003418,82.540382 655.367615,74.274834 666.319946,67.954033 
	C676.167725,62.270702 684.865479,54.596920 694.095337,47.835098 
	C694.701782,47.390839 695.520386,47.236214 696.944702,46.663731 
	C696.944702,72.268280 696.944702,97.293884 696.944702,122.960907 
	C712.720825,122.960907 727.926392,122.960907 743.727173,122.960907 
	C743.727173,135.037048 743.731995,146.477005 743.724121,157.916946 
	C743.721863,161.240387 741.303894,160.890778 739.132324,160.890976 
	C727.139771,160.892090 715.147278,160.892029 703.154724,160.892349 
	C701.361389,160.892395 699.567993,160.892349 697.114197,160.892349 
	C697.114197,163.163574 697.114258,164.938248 697.114258,166.712921 
	C697.114441,193.029892 697.084045,219.346954 697.153381,245.663742 
	C697.162170,248.970383 697.450195,252.319717 698.032104,255.573578 
	C700.095459,267.112488 708.840515,272.251831 723.062622,270.173035 
z"/>
<path fill="#FEFEFF" opacity="1.000000" stroke="none" 
	d="
M378.674500,253.587463 
	C365.669678,268.740814 349.627106,274.897369 330.300873,271.106934 
	C319.293274,268.948029 312.789734,261.060638 313.046692,251.538254 
	C313.308044,241.852722 320.931488,233.098648 331.143921,231.088058 
	C334.871918,230.354111 338.706940,229.847794 342.498810,229.810211 
	C357.136292,229.665085 371.776062,229.751282 386.907410,229.751282 
	C387.944763,239.188568 383.593811,246.301025 378.674500,253.587463 
z"/>
<path fill="#FEFEFF" opacity="1.000000" stroke="none" 
	d="
M1065.005371,229.744675 
	C1078.109741,229.744659 1090.715332,229.744659 1103.755005,229.744659 
	C1104.020630,238.690964 1100.460449,245.837112 1095.861328,252.524002 
	C1085.525146,267.551788 1063.819092,275.544312 1046.139038,271.021515 
	C1036.116333,268.457550 1030.114380,261.793640 1029.812988,252.894424 
	C1029.478149,243.015488 1034.931519,234.738693 1044.893799,232.095200 
	C1051.195557,230.422989 1057.953125,230.469208 1065.005371,229.744675 
z"/>
<path fill="#FFFFFF" opacity="1.000000" stroke="none" 
	d="
M1443.753174,167.776154 
	C1450.636230,161.531998 1458.592041,157.793991 1467.286987,157.324066 
	C1480.611084,156.603973 1493.426514,158.878326 1503.098633,169.504242 
	C1509.973755,177.057404 1512.623291,186.345566 1514.090942,196.661392 
	C1486.424072,196.661392 1459.070068,196.661392 1431.047607,196.661392 
	C1432.346558,185.795120 1437.469727,176.730011 1443.753174,167.776154 
z"/>
</svg>